<svg id="Capa_1" enable-background="new 0 0 512 512" height="512" viewBox="0 0 512 512" width="512" xmlns="http://www.w3.org/2000/svg"><g><path d="m431.5 496.5v-101.325c44.749-3.817 80-41.454 80-87.175v-127.142h-15v127.142c0 37.444-28.534 68.347-65 72.113v-40.006l37.803-37.803-10.606-10.606-27.197 27.196v-74.787l37.803-37.803-10.606-10.606-27.197 27.196v-108.894h-15v60.894l-27.197-27.197-10.606 10.606 37.803 37.803v74.787l-27.197-27.197-10.606 10.606 37.803 37.803v88.006c-36.466-3.765-65-34.668-65-72.113v-204.284h-15v204.286c0 45.721 35.251 83.358 80 87.175v101.325h-31.5v15h127v-15z"/><path d="m351.5 88c0-39.977 32.523-72.5 72.5-72.5 22.292 0 42.259 10.121 55.569 26h-32.569v15h42.29c2.294 4.735 4.069 9.763 5.293 15h-33.583v15h35.462c.01.501.038.997.038 1.5v77.858h15v-77.858c0-48.248-39.252-87.5-87.5-87.5s-87.5 39.252-87.5 87.5v.714h15z"/><path d="m345.5 444c0-37.22-30.28-67.5-67.5-67.5-7.793 0-15.275 1.343-22.245 3.784l-15.24-29.766 2.232-4.017h-4.289l-10.331-20.178 19.586-9.793-14.796-34.03h-39.917v15h30.083l5.205 11.971-20.414 10.207 13.733 26.822h-102.107v-15h28.5v-15h-60v15h16.5v20.765l-13.777 28.181c-7.105-2.548-14.753-3.946-22.723-3.946-37.22 0-67.5 30.28-67.5 67.5 0 21.187 9.82 40.116 25.139 52.5h-25.639v15h370v-15h-49.639c15.319-12.384 25.139-31.313 25.139-52.5zm-128.247-82.5-38.215 68.787-51.971-68.787zm-103.877 6.762 51.558 68.238h-29.86c-2.308-20.771-14.077-38.715-30.889-49.438zm-15.826 32.371c11.885 8.124 20.269 20.999 22.406 35.867h-39.941zm-29.55 95.867c-28.949 0-52.5-23.551-52.5-52.5s23.551-52.5 52.5-52.5c5.609 0 11.01.893 16.082 2.529l-28.097 57.471h63.971c-3.652 25.407-25.554 45-51.956 45zm42.361 0c13.485-10.902 22.699-26.877 24.712-45h49.34l47.332-85.198 10.491 20.49c-19.042 11.948-31.736 33.118-31.736 57.208 0 21.187 9.82 40.116 25.139 52.5zm167.639 0c-28.949 0-52.5-23.551-52.5-52.5 0-18.277 9.394-34.395 23.601-43.8l26.224 51.218 13.352-6.836-26.006-50.793c4.852-1.484 9.998-2.289 15.33-2.289 28.949 0 52.5 23.551 52.5 52.5s-23.552 52.5-52.501 52.5z"/><path d="m256.857 436.304-14.096-5.13c-3.421 9.4-2.972 19.582 1.265 28.668s11.748 15.975 21.148 19.396l5.13-14.096c-11.658-4.242-17.691-17.179-13.447-28.838z"/><path d="m46.857 436.304-14.096-5.13c-3.421 9.4-2.972 19.582 1.265 28.668s11.748 15.975 21.148 19.396l5.13-14.096c-11.658-4.242-17.691-17.179-13.447-28.838z"/><path d="m311.974 428.158c-4.237-9.086-11.748-15.975-21.148-19.396l-5.13 14.096c11.658 4.243 17.691 17.18 13.447 28.839l14.096 5.13c3.421-9.402 2.972-19.583-1.265-28.669z"/><path d="m122.567 141.039c-12.57 2.529-22.067 13.657-22.067 26.961 0 15.164 12.336 27.5 27.5 27.5h68.127v-15h-68.127c-6.893 0-12.5-5.607-12.5-12.5s5.607-12.5 12.5-12.5c.19 0 .379.007.568.015l7.208.327.605-7.19c.885-10.515 9.854-18.752 20.418-18.752 2.22 0 4.416.359 6.525 1.067l5.107 1.714 3.255-4.293c6.211-8.191 15.656-12.889 25.912-12.889 13.134 0 24.904 7.828 29.984 19.943l2.37 5.652 6.011-1.197c1.329-.264 2.686-.398 4.035-.398 11.304 0 20.5 9.196 20.5 20.5s-9.196 20.5-20.5 20.5h-28.873v15h28.875c19.575 0 35.5-15.925 35.5-35.5s-15.925-35.5-35.5-35.5c-.366 0-.733.006-1.1.017-8.372-14.754-24.029-24.017-41.3-24.017-13.288 0-25.64 5.391-34.593 14.946-2.044-.363-4.119-.546-6.207-.546-16.108.001-30.074 11.062-34.233 26.14z"/><path d="m73 105.5c20.678 0 37.5-16.822 37.5-37.5s-16.822-37.5-37.5-37.5-37.5 16.822-37.5 37.5 16.822 37.5 37.5 37.5zm0-60c12.407 0 22.5 10.093 22.5 22.5s-10.093 22.5-22.5 22.5-22.5-10.093-22.5-22.5 10.093-22.5 22.5-22.5z"/><path d="m65.5.5h15v15h-15z"/><path d="m65.5 120.5h15v15h-15z"/><path d="m23.074 18.074h15v15h-15z" transform="matrix(.707 -.707 .707 .707 -9.129 29.109)"/><path d="m107.926 102.926h15v15h-15z" transform="matrix(.707 -.707 .707 .707 -44.276 113.962)"/><path d="m5.5 60.5h15v15h-15z"/><path d="m125.5 60.5h15v15h-15z"/><path d="m23.074 102.926h15v15h-15z" transform="matrix(.707 -.707 .707 .707 -69.128 53.962)"/><path d="m107.926 18.074h15v15h-15z" transform="matrix(.707 -.707 .707 .707 15.724 89.109)"/><path d="m225 84.5h65c20.678 0 37.5-16.822 37.5-37.5s-16.822-37.5-37.5-37.5c-10.167 0-19.833 4.148-26.838 11.322-2.969-.872-6.063-1.322-9.162-1.322-5.089 0-10.021 1.168-14.5 3.411-4.479-2.243-9.411-3.411-14.5-3.411-17.92 0-32.5 14.58-32.5 32.5s14.58 32.5 32.5 32.5zm0-50c3.66 0 7.167 1.123 10.144 3.247l4.356 3.108 4.356-3.108c2.977-2.124 6.484-3.247 10.144-3.247 2.817 0 5.51.653 8.005 1.94l5.814 3 3.762-5.353c4.219-6.003 11.105-9.587 18.419-9.587 12.407 0 22.5 10.093 22.5 22.5s-10.093 22.5-22.5 22.5h-65c-9.649 0-17.5-7.851-17.5-17.5s7.851-17.5 17.5-17.5z"/><path d="m417 41.5h15v15h-15z"/><path d="m385 338.5h15v15h-15z"/><path d="m369 308.5h15v15h-15z"/></g></svg>